<svg xmlns="http://www.w3.org/2000/svg" viewBox="0 0 512 512">
  <g fill="#171714" transform="translate(24 109) scale(0.234)">
<g transform="translate(0 990) scale(1 -1)"><path d="M34 0Q19 0 19 11Q19 20 32 23L55 27Q76 31 82.5 38.0Q89 45 89 66V654Q89 675 82.5 682.0Q76 689 55 693L32 697Q19 700 19 709Q19 720 34 720H217Q232 720 232 708Q232 699 221 697L194 693Q173 690 166.5 682.0Q160 674 160 653V383Q160 373 166.0 371.0Q172 369 177 378L341 635Q374 686 335 693L312 697Q299 700 299 710Q299 720 313 720H483Q497 720 497 709Q497 698 484 697L465 695Q434 692 414.0 677.0Q394 662 369 623L256 446Q246 429 255 413L443 59Q451 43 459.5 36.0Q468 29 480 27L504 23Q516 22 516 11Q516 0 502 0H324Q310 0 310 11Q310 21 323 23L340 25Q379 30 356 74L212 348Q208 356 203.0 356.5Q198 357 193 349L172 316Q165 306 162.5 297.0Q160 288 160 274V67Q160 46 166.5 38.0Q173 30 194 27L221 23Q232 21 232 12Q232 0 217 0Z"/></g>
<g transform="translate(496 990) scale(1 -1)"><path d="M184 -9Q164 -9 139.5 -5.0Q115 -1 93.5 5.0Q72 11 60 18Q53 22 49.5 26.5Q46 31 46 42L41 199Q41 219 54 219Q65 219 69 201L78 163Q112 20 205 20Q255 20 284.5 53.5Q314 87 314 148Q314 207 283.5 258.0Q253 309 186 359Q112 412 78.0 461.5Q44 511 44 567Q44 641 95.5 685.5Q147 730 227 730Q257 730 285.0 723.0Q313 716 331 703Q337 699 340.5 694.0Q344 689 344 681L347 530Q347 513 334 513Q325 513 321 527L314 552Q292 629 268.5 664.5Q245 700 201 700Q158 700 132.5 672.0Q107 644 107 593Q107 550 135.0 511.0Q163 472 233 416Q308 355 342.5 298.5Q377 242 377 178Q377 122 352.0 80.0Q327 38 283.5 14.5Q240 -9 184 -9Z"/></g>
<g transform="translate(903 990) scale(1 -1)"><path d="M34 0Q19 0 19 11Q19 20 32 23L55 27Q76 31 82.5 38.0Q89 45 89 66V654Q89 675 82.5 682.0Q76 689 55 693L32 697Q19 700 19 709Q19 720 34 720H217Q232 720 232 708Q232 699 221 697L194 693Q173 690 166.5 682.0Q160 674 160 653V402Q160 388 174 388H372Q386 388 386 402V653Q386 674 379.5 682.0Q373 690 352 693L325 697Q314 699 314 708Q314 720 329 720H512Q527 720 527 709Q527 700 514 697L491 693Q470 689 463.5 682.0Q457 675 457 654V66Q457 45 463.5 38.0Q470 31 491 27L514 23Q527 20 527 11Q527 0 512 0H329Q314 0 314 12Q314 21 325 23L352 27Q373 30 379.5 38.0Q386 46 386 67V344Q386 358 372 358H174Q160 358 160 344V67Q160 46 166.5 38.0Q173 30 194 27L221 23Q232 21 232 12Q232 0 217 0Z"/></g>
<g transform="translate(1449 990) scale(1 -1)"><path d="M450 -9Q363 -9 339 105L316 216Q305 270 291.5 298.0Q278 326 254.5 336.0Q231 346 190 346Q176 346 168.0 338.5Q160 331 160 320V70Q160 49 168.0 41.5Q176 34 204 29L241 23Q252 21 252 12Q252 0 237 0H34Q19 0 19 11Q19 20 32 23L55 27Q76 31 82.5 38.0Q89 45 89 66V654Q89 675 82.5 682.0Q76 689 55 693L32 697Q19 700 19 709Q19 720 34 720H237Q296 720 342.0 697.0Q388 674 414.0 633.5Q440 593 440 540Q440 477 402.0 426.5Q364 376 306 355Q299 353 298.5 348.5Q298 344 305 341Q337 326 355.5 299.0Q374 272 384 227L406 125Q417 73 432.0 51.0Q447 29 470 29Q478 29 484.5 31.5Q491 34 501 41Q509 46 516.0 43.5Q523 41 523 33Q523 16 501.0 3.5Q479 -9 450 -9ZM227 371Q295 371 330.0 416.5Q365 462 365 538Q365 612 324.5 653.5Q284 695 213 695Q160 695 160 655V426Q160 371 227 371Z"/></g>
  </g>
</svg>
